<svg width="14" height="19" viewBox="0 0 14 19" fill="none" xmlns="http://www.w3.org/2000/svg">
<path fill-rule="evenodd" clip-rule="evenodd" d="M6.59612 18.3481C6.70827 18.4454 6.85155 18.4993 7 18.5C7.14625 18.5 7.28913 18.4471 7.40388 18.3481C7.64013 18.1456 13.1875 13.3216 13.1875 7.12625C13.1875 5.369 12.535 3.68375 11.3763 2.44063C10.2141 1.19863 8.64025 0.5 7 0.5C5.35975 0.5 3.78475 1.1975 2.62375 2.44063C1.465 3.68375 0.8125 5.369 0.8125 7.12625C0.8125 13.3216 6.35987 18.1456 6.59612 18.3481ZM7 9.65413C7.79347 9.65174 8.5535 9.33433 9.11299 8.77168C9.67247 8.20903 9.98559 7.44722 9.9835 6.65375C9.98483 6.26067 9.90871 5.87119 9.75948 5.50754C9.61025 5.14389 9.39084 4.8132 9.11378 4.53437C8.83673 4.25553 8.50745 4.03401 8.14476 3.88246C7.78207 3.73091 7.39308 3.65231 7 3.65113C6.60692 3.65231 6.21793 3.73091 5.85524 3.88246C5.49255 4.03401 5.16327 4.25553 4.88622 4.53437C4.60916 4.8132 4.38975 5.14389 4.24052 5.50754C4.09129 5.87119 4.01517 6.26067 4.0165 6.65375C4.01441 7.44722 4.32753 8.20903 4.88701 8.77168C5.4465 9.33433 6.20653 9.65174 7 9.65413Z" fill="white"/>
</svg>
